<?xml version="1.0" encoding="UTF-8" standalone="no"?>
<svg
   xmlns:dc="http://purl.org/dc/elements/1.1/"
   xmlns:cc="http://creativecommons.org/ns#"
   xmlns:rdf="http://www.w3.org/1999/02/22-rdf-syntax-ns#"
   xmlns:svg="http://www.w3.org/2000/svg"
   xmlns="http://www.w3.org/2000/svg"
   xmlns:sodipodi="http://sodipodi.sourceforge.net/DTD/sodipodi-0.dtd"
   xmlns:inkscape="http://www.inkscape.org/namespaces/inkscape"
   width="1058.3636"
   height="1058.3636"
   version="1.1"
   id="svg100"
   sodipodi:docname="bottomPanel.svg"
   inkscape:version="0.92.3 (2405546, 2018-03-11)">
  <metadata
     id="metadata104">
    <rdf:RDF>
      <cc:Work
         rdf:about="">
        <dc:format>image/svg+xml</dc:format>
        <dc:type
           rdf:resource="http://purl.org/dc/dcmitype/StillImage" />
        <dc:title></dc:title>
      </cc:Work>
    </rdf:RDF>
  </metadata>
  <sodipodi:namedview
     pagecolor="#ffffff"
     bordercolor="#666666"
     borderopacity="1"
     objecttolerance="10"
     gridtolerance="10"
     guidetolerance="10"
     inkscape:pageopacity="0"
     inkscape:pageshadow="2"
     inkscape:window-width="1366"
     inkscape:window-height="705"
     id="namedview102"
     showgrid="false"
     fit-margin-top="0"
     fit-margin-left="0"
     fit-margin-right="0"
     fit-margin-bottom="0"
     inkscape:zoom="0.59465222"
     inkscape:cx="453.00314"
     inkscape:cy="725.95873"
     inkscape:window-x="-8"
     inkscape:window-y="-8"
     inkscape:window-maximized="1"
     inkscape:current-layer="g98" />
  <desc
     id="desc2">C:\Users\Josef\Documents\Acoustic\GIT\manufacturing\laser cut\spodniDeska.dxf - scale = 1.000000, origin = (0.000000, 0.000000), method = manual</desc>
  <defs
     id="defs16">
    <marker
       id="DistanceX"
       orient="auto"
       refX="0"
       refY="0"
       style="overflow:visible">
      <path
         d="M 3,-3 -3,3 M 0,-5 V 5"
         style="stroke:#000000;stroke-width:0.5"
         id="path4"
         inkscape:connector-curvature="0" />
    </marker>
    <pattern
       height="8"
       id="Hatch"
       patternUnits="userSpaceOnUse"
       width="8"
       x="0"
       y="0">
      <path
         d="M8 4 l-4,4"
         linecap="square"
         stroke="#000000"
         stroke-width="0.25"
         id="path7" />
      <path
         d="M6 2 l-4,4"
         linecap="square"
         stroke="#000000"
         stroke-width="0.25"
         id="path9" />
      <path
         d="M4 0 l-4,4"
         linecap="square"
         stroke="#000000"
         stroke-width="0.25"
         id="path11" />
    </pattern>
    <symbol
       id="*MODEL_SPACE" />
    <symbol
       id="*PAPER_SPACE" />
  </defs>
  <g
     inkscape:groupmode="layer"
     inkscape:label="Cut"
     id="g98"
     style="display:inline"
     transform="translate(0.048,-1122.4717)">
    <path
       d="m 0,1160.315 a 37.795276,37.795276 0 0 1 37.795276,-37.7953 H 1020.4724 a 37.795276,37.795276 0 0 1 37.7953,37.7953 v 982.6771 a 37.795276,37.795276 0 0 1 -37.7953,37.7953 H 37.795276 A 37.795276,37.795276 0 0 1 0,2142.9921 Z"
       style="fill:none;stroke:#000000;stroke-width:0.096;stroke-miterlimit:4;stroke-dasharray:none"
       id="path56"
       inkscape:connector-curvature="0" />
    <path
       d="m 485.66929,1691.3386 a 3.779528,3.779528 0 1 0 -7.55905,0 3.779528,3.779528 0 1 0 7.55905,0 z"
       style="display:inline;fill:none;stroke:#000000;stroke-width:0.096;stroke-miterlimit:4;stroke-dasharray:none"
       id="path44"
       inkscape:connector-curvature="0" />
    <path
       d="m 532.91339,1691.3386 a 3.77953,3.77953 0 1 0 -7.55906,0 3.77953,3.77953 0 1 0 7.55906,0 z"
       style="display:inline;fill:none;stroke:#000000;stroke-width:0.096;stroke-miterlimit:4;stroke-dasharray:none"
       id="path42"
       inkscape:connector-curvature="0" />
    <path
       d="m 532.91339,1611.9685 a 3.77953,3.77953 0 1 0 -7.55906,0 3.77953,3.77953 0 1 0 7.55906,0 z"
       style="display:inline;fill:none;stroke:#000000;stroke-width:0.096;stroke-miterlimit:4;stroke-dasharray:none"
       id="path38"
       inkscape:connector-curvature="0" />
    <path
       d="m 485.66929,1611.9685 a 3.779528,3.779528 0 1 0 -7.55905,0 3.779528,3.779528 0 1 0 7.55905,0 z"
       style="display:inline;fill:none;stroke:#000000;stroke-width:0.096;stroke-miterlimit:4;stroke-dasharray:none"
       id="path40"
       inkscape:connector-curvature="0" />
  </g>
  <g
     inkscape:groupmode="layer"
     id="layer1"
     inkscape:label="EngraveTop"
     style="display:inline"
     transform="translate(0.048,-1122.4717)">
    <path
       d="m 581.10237,1608.189 h -37.79528 v 86.9291 h 37.79528 z"
       style="display:inline;fill:#000000;fill-opacity:1;stroke:none"
       id="path46"
       inkscape:connector-curvature="0" />
    <path
       d="m 877.7953,1608.189 h 28.34643 v 86.9291 H 877.7953 Z"
       style="display:inline;fill:#000000;fill-opacity:1;stroke:none"
       id="path84"
       inkscape:connector-curvature="0" />
    <path
       d="M 977.95278,1608.189 H 949.6063 v 86.9291 h 28.34648 z"
       style="display:inline;fill:#000000;fill-opacity:1;stroke:none"
       id="path86"
       inkscape:connector-curvature="0" />
    <path
       d="M 36.850394,2028.6614 H 152.12598 V 2143.937 H 36.850394 Z"
       style="display:inline;fill:#000000;fill-opacity:1;stroke:none"
       id="path18"
       inkscape:connector-curvature="0" />
    <rect
       style="display:inline;opacity:1;vector-effect:none;fill:#000000;fill-opacity:1;fill-rule:evenodd;stroke:none;stroke-width:1;stroke-linecap:butt;stroke-linejoin:miter;stroke-miterlimit:4;stroke-dasharray:none;stroke-dashoffset:0;stroke-opacity:1"
       id="rect1031"
       width="754.01575"
       height="43.4646"
       x="152.12598"
       y="2028.6614" />
    <rect
       style="display:inline;opacity:1;vector-effect:none;fill:#000000;fill-opacity:1;fill-rule:evenodd;stroke:none;stroke-width:1;stroke-linecap:butt;stroke-linejoin:miter;stroke-miterlimit:4;stroke-dasharray:none;stroke-dashoffset:0;stroke-opacity:1"
       id="rect1034"
       width="115.27557"
       height="115.2756"
       x="906.14172"
       y="2028.6614" />
    <rect
       style="display:inline;opacity:1;vector-effect:none;fill:#000000;fill-opacity:1;fill-rule:evenodd;stroke:none;stroke-width:1;stroke-linecap:butt;stroke-linejoin:miter;stroke-miterlimit:4;stroke-dasharray:none;stroke-dashoffset:0;stroke-opacity:1"
       id="rect1040"
       width="43.464569"
       height="754.01569"
       x="906.14172"
       y="1274.6458" />
    <rect
       style="display:inline;opacity:1;vector-effect:none;fill:#000000;fill-opacity:1;fill-rule:evenodd;stroke:none;stroke-width:1;stroke-linecap:butt;stroke-linejoin:miter;stroke-miterlimit:4;stroke-dasharray:none;stroke-dashoffset:0;stroke-opacity:1"
       id="rect1043"
       width="115.27557"
       height="115.2756"
       x="906.14172"
       y="1159.3701" />
    <rect
       style="display:inline;opacity:1;vector-effect:none;fill:#000000;fill-opacity:1;fill-rule:evenodd;stroke:none;stroke-width:1;stroke-linecap:butt;stroke-linejoin:miter;stroke-miterlimit:4;stroke-dasharray:none;stroke-dashoffset:0;stroke-opacity:1"
       id="rect1046"
       width="754.01575"
       height="43.4646"
       x="152.12598"
       y="1231.1812" />
    <rect
       style="display:inline;opacity:1;vector-effect:none;fill:#000000;fill-opacity:1;fill-rule:evenodd;stroke:none;stroke-width:1;stroke-linecap:butt;stroke-linejoin:miter;stroke-miterlimit:4;stroke-dasharray:none;stroke-dashoffset:0;stroke-opacity:1"
       id="rect1049"
       width="115.27559"
       height="115.2756"
       x="36.850395"
       y="1159.3701" />
    <rect
       style="display:inline;opacity:1;vector-effect:none;fill:#000000;fill-opacity:1;fill-rule:evenodd;stroke:none;stroke-width:1;stroke-linecap:butt;stroke-linejoin:miter;stroke-miterlimit:4;stroke-dasharray:none;stroke-dashoffset:0;stroke-opacity:1"
       id="rect1052"
       width="43.464561"
       height="754.01569"
       x="108.66142"
       y="1274.6458" />
  </g>
  <g
     inkscape:groupmode="layer"
     id="layer2"
     inkscape:label="EngraveBottom"
     style="display:inline"
     transform="translate(0.048,-1122.4717)">
    <path
       d="m 491.33858,1611.9685 a 9.44882,9.44882 0 1 0 -18.89764,0 9.44882,9.44882 0 1 0 18.89764,0 z"
       style="fill:#000000;fill-opacity:1;stroke:none;stroke-width:0.95999998;stroke-miterlimit:4;stroke-dasharray:none"
       id="path48"
       inkscape:connector-curvature="0" />
    <path
       d="m 538.58268,1611.9685 a 9.44882,9.44882 0 1 0 -18.89764,0 9.44882,9.44882 0 1 0 18.89764,0 z"
       style="fill:#000000;fill-opacity:1;stroke:none;stroke-width:0.95999998;stroke-miterlimit:4;stroke-dasharray:none"
       id="path50"
       inkscape:connector-curvature="0" />
    <path
       d="m 491.33858,1691.3386 a 9.44882,9.44882 0 1 0 -18.89764,0 9.44882,9.44882 0 1 0 18.89764,0 z"
       style="fill:#000000;fill-opacity:1;stroke:none;stroke-width:0.95999998;stroke-miterlimit:4;stroke-dasharray:none"
       id="path52"
       inkscape:connector-curvature="0" />
    <path
       d="m 538.58268,1691.3386 a 9.44882,9.44882 0 1 0 -18.89764,0 9.44882,9.44882 0 1 0 18.89764,0 z"
       style="fill:#000000;fill-opacity:1;stroke:none;stroke-width:0.95999998;stroke-miterlimit:4;stroke-dasharray:none"
       id="path54"
       inkscape:connector-curvature="0" />
  </g>
</svg>
