  0
SECTION
  2
HEADER
  9
$ACADVER
  1
AC1014
  9
$HANDSEED
  5
FFFF
  9
$MEASUREMENT
 70
     1
  0
ENDSEC
  0
SECTION
  2
TABLES
  0
TABLE
  2
VPORT
  5
8
330
0
100
AcDbSymbolTable
 70
     4
  0
VPORT
  5
2E
330
8
100
AcDbSymbolTableRecord
100
AcDbViewportTableRecord
  2
*ACTIVE
 70
     0
 10
0.0
 20
0.0
 11
1.0
 21
1.0
 12
210.0
 22
148.5
 13
0.0
 23
0.0
 14
10.0
 24
10.0
 15
10.0
 25
10.0
 16
0.0
 26
0.0
 36
1.0
 17
0.0
 27
0.0
 37
0.0
 40
341.0
 41
1.24
 42
50.0
 43
0.0
 44
0.0
 50
0.0
 51
0.0
 71
     0
 72
   100
 73
     1
 74
     3
 75
     0
 76
     0
 77
     0
 78
     0
  0
ENDTAB
  0
TABLE
  2
LTYPE
  5
5
330
0
100
AcDbSymbolTable
 70
     1
  0
LTYPE
  5
14
330
5
100
AcDbSymbolTableRecord
100
AcDbLinetypeTableRecord
  2
BYBLOCK
 70
     0
  3

 72
    65
 73
     0
 40
0.0
  0
LTYPE
  5
15
330
5
100
AcDbSymbolTableRecord
100
AcDbLinetypeTableRecord
  2
BYLAYER
 70
     0
  3

 72
    65
 73
     0
 40
0.0
  0
LTYPE
  5
16
330
5
100
AcDbSymbolTableRecord
100
AcDbLinetypeTableRecord
  2
CONTINUOUS
 70
     0
  3
Solid line
 72
    65
 73
     0
 40
0.0
  0
ENDTAB
  0
TABLE
  2
LAYER
  5
2
100
AcDbSymbolTable
 70
4
  0
LAYER
  5
50
100
AcDbSymbolTableRecord
100
AcDbLayerTableRecord
  2
0
 70
0
  6
CONTINUOUS
  0
LAYER
  5
51
100
AcDbSymbolTableRecord
100
AcDbLayerTableRecord
  2
Cut
 70
0
  6
CONTINUOUS
  0
LAYER
  5
52
100
AcDbSymbolTableRecord
100
AcDbLayerTableRecord
  2
EngraveTop
 70
0
  6
CONTINUOUS
  0
LAYER
  5
53
100
AcDbSymbolTableRecord
100
AcDbLayerTableRecord
  2
EngraveBottom
 70
0
  6
CONTINUOUS
  0
ENDTAB
  0
TABLE
  2
STYLE
  5
3
330
0
100
AcDbSymbolTable
 70
     1
  0
STYLE
  5
11
330
3
100
AcDbSymbolTableRecord
100
AcDbTextStyleTableRecord
  2
STANDARD
 70
     0
 40
0.0
 41
1.0
 50
0.0
 71
     0
 42
2.5
  3
txt
  4

  0
ENDTAB
  0
TABLE
  2
VIEW
  5
6
330
0
100
AcDbSymbolTable
 70
     0
  0
ENDTAB
  0
TABLE
  2
UCS
  5
7
330
0
100
AcDbSymbolTable
 70
     0
  0
ENDTAB
  0
TABLE
  2
APPID
  5
9
330
0
100
AcDbSymbolTable
 70
     2
  0
APPID
  5
12
330
9
100
AcDbSymbolTableRecord
100
AcDbRegAppTableRecord
  2
ACAD
 70
     0
  0
ENDTAB
  0
TABLE
  2
DIMSTYLE
  5
A
330
0
100
AcDbSymbolTable
 70
     1
  0
DIMSTYLE
105
27
330
A
100
AcDbSymbolTableRecord
100
AcDbDimStyleTableRecord
  2
ISO-25
 70
     0
  3

  4

  5

  6

  7

 40
1.0
 41
2.5
 42
0.625
 43
3.75
 44
1.25
 45
0.0
 46
0.0
 47
0.0
 48
0.0
140
2.5
141
2.5
142
0.0
143
0.03937007874016
144
1.0
145
0.0
146
1.0
147
0.625
 71
     0
 72
     0
 73
     0
 74
     0
 75
     0
 76
     0
 77
     1
 78
     8
170
     0
171
     3
172
     1
173
     0
174
     0
175
     0
176
     0
177
     0
178
     0
270
     2
271
     2
272
     2
273
     2
274
     3
340
11
275
     0
280
     0
281
     0
282
     0
283
     0
284
     8
285
     0
286
     0
287
     3
288
     0
  0
ENDTAB
  0
TABLE
  2
BLOCK_RECORD
  5
1
330
0
100
AcDbSymbolTable
 70
     1
  0
BLOCK_RECORD
  5
1F
330
1
100
AcDbSymbolTableRecord
100
AcDbBlockTableRecord
  2
*MODEL_SPACE
  0
BLOCK_RECORD
  5
1B
330
1
100
AcDbSymbolTableRecord
100
AcDbBlockTableRecord
  2
*PAPER_SPACE
  0
ENDTAB
  0
ENDSEC
  0
SECTION
  2
BLOCKS
  0
BLOCK
  5
20
330
1F
100
AcDbEntity
  8
0
100
AcDbBlockBegin
  2
*MODEL_SPACE
 70
     0
 10
0.0
 20
0.0
 30
0.0
  3
*MODEL_SPACE
  1

  0
ENDBLK
  5
21
330
1F
100
AcDbEntity
  8
0
100
AcDbBlockEnd
  0
BLOCK
  5
1C
330
1B
100
AcDbEntity
 67
     1
  8
0
100
AcDbBlockBegin
  2
*PAPER_SPACE
  1

  0
ENDBLK
  5
1D
330
1B
100
AcDbEntity
 67
     1
  8
0
100
AcDbBlockEnd
  0
ENDSEC
  0
SECTION
  2
ENTITIES
  0
SPLINE
  5
100
100
AcDbEntity
  8
Cut
 62
7
100
AcDbSpline
 70
8
 71
3
 72
8
 73
4
 74
0
 40
0
 40
0
 40
0
 40
0
 40
1
 40
1
 40
1
 40
1
 10
0.012700
 20
270.012663
 30
0.0
 10
0.012698
 20
272.664829
 30
0.0
 10
1.066266
 20
275.208370
 30
0.0
 10
2.941630
 20
277.083735
 30
0.0
  0
SPLINE
  5
101
100
AcDbEntity
  8
Cut
 62
7
100
AcDbSpline
 70
8
 71
3
 72
8
 73
4
 74
0
 40
0
 40
0
 40
0
 40
0
 40
1
 40
1
 40
1
 40
1
 10
2.941630
 20
277.083735
 30
0.0
 10
4.816994
 20
278.959100
 30
0.0
 10
7.360534
 20
280.012669
 30
0.0
 10
10.012700
 20
280.012669
 30
0.0
  0
SPLINE
  5
102
100
AcDbEntity
  8
Cut
 62
7
100
AcDbSpline
 70
8
 71
3
 72
8
 73
4
 74
0
 40
0
 40
0
 40
0
 40
0
 40
1
 40
1
 40
1
 40
1
 10
10.012700
 20
280.012669
 30
0.0
 10
10.012700
 20
280.012669
 30
0.0
 10
270.012689
 20
280.012669
 30
0.0
 10
270.012689
 20
280.012669
 30
0.0
  0
SPLINE
  5
103
100
AcDbEntity
  8
Cut
 62
7
100
AcDbSpline
 70
8
 71
3
 72
8
 73
4
 74
0
 40
0
 40
0
 40
0
 40
0
 40
1
 40
1
 40
1
 40
1
 10
270.012689
 20
280.012669
 30
0.0
 10
272.664856
 20
280.012671
 30
0.0
 10
275.208398
 20
278.959102
 30
0.0
 10
277.083763
 20
277.083737
 30
0.0
  0
SPLINE
  5
104
100
AcDbEntity
  8
Cut
 62
7
100
AcDbSpline
 70
8
 71
3
 72
8
 73
4
 74
0
 40
0
 40
0
 40
0
 40
0
 40
1
 40
1
 40
1
 40
1
 10
277.083763
 20
277.083737
 30
0.0
 10
278.959129
 20
275.208372
 30
0.0
 10
280.012697
 20
272.664830
 30
0.0
 10
280.012696
 20
270.012663
 30
0.0
  0
SPLINE
  5
105
100
AcDbEntity
  8
Cut
 62
7
100
AcDbSpline
 70
8
 71
3
 72
8
 73
4
 74
0
 40
0
 40
0
 40
0
 40
0
 40
1
 40
1
 40
1
 40
1
 10
280.012696
 20
270.012663
 30
0.0
 10
280.012696
 20
270.012663
 30
0.0
 10
280.012696
 20
10.012680
 30
0.0
 10
280.012696
 20
10.012680
 30
0.0
  0
SPLINE
  5
106
100
AcDbEntity
  8
Cut
 62
7
100
AcDbSpline
 70
8
 71
3
 72
8
 73
4
 74
0
 40
0
 40
0
 40
0
 40
0
 40
1
 40
1
 40
1
 40
1
 10
280.012696
 20
10.012680
 30
0.0
 10
280.012697
 20
7.360513
 30
0.0
 10
278.959129
 20
4.816971
 30
0.0
 10
277.083763
 20
2.941606
 30
0.0
  0
SPLINE
  5
107
100
AcDbEntity
  8
Cut
 62
7
100
AcDbSpline
 70
8
 71
3
 72
8
 73
4
 74
0
 40
0
 40
0
 40
0
 40
0
 40
1
 40
1
 40
1
 40
1
 10
277.083763
 20
2.941606
 30
0.0
 10
275.208398
 20
1.066240
 30
0.0
 10
272.664856
 20
0.012672
 30
0.0
 10
270.012689
 20
0.012674
 30
0.0
  0
SPLINE
  5
108
100
AcDbEntity
  8
Cut
 62
7
100
AcDbSpline
 70
8
 71
3
 72
8
 73
4
 74
0
 40
0
 40
0
 40
0
 40
0
 40
1
 40
1
 40
1
 40
1
 10
10.012700
 20
0.012674
 30
0.0
 10
7.360534
 20
0.012674
 30
0.0
 10
4.816994
 20
1.066243
 30
0.0
 10
2.941630
 20
2.941608
 30
0.0
  0
SPLINE
  5
109
100
AcDbEntity
  8
Cut
 62
7
100
AcDbSpline
 70
8
 71
3
 72
8
 73
4
 74
0
 40
0
 40
0
 40
0
 40
0
 40
1
 40
1
 40
1
 40
1
 10
2.941630
 20
2.941608
 30
0.0
 10
1.066266
 20
4.816973
 30
0.0
 10
0.012698
 20
7.360514
 30
0.0
 10
0.012700
 20
10.012680
 30
0.0
  0
LWPOLYLINE
  5
10a
100
AcDbEntity
  8
Cut
 62
7
100
AcDbPolyline
 90
2
 70
0
 10
270.012689
 20
0.012674
 30
0.0
 10
10.012700
 20
0.012674
 30
0.0
  0
SPLINE
  5
10b
100
AcDbEntity
  8
Cut
 62
7
100
AcDbSpline
 70
8
 71
3
 72
8
 73
4
 74
0
 40
0
 40
0
 40
0
 40
0
 40
1
 40
1
 40
1
 40
1
 10
128.512700
 20
129.512669
 30
0.0
 10
128.513150
 20
129.870234
 30
0.0
 10
128.322650
 20
130.200831
 30
0.0
 10
128.013064
 20
130.379744
 30
0.0
  0
SPLINE
  5
10c
100
AcDbEntity
  8
Cut
 62
7
100
AcDbSpline
 70
8
 71
3
 72
8
 73
4
 74
0
 40
0
 40
0
 40
0
 40
0
 40
1
 40
1
 40
1
 40
1
 10
128.013064
 20
130.379744
 30
0.0
 10
127.703478
 20
130.558657
 30
0.0
 10
127.321922
 20
130.558657
 30
0.0
 10
127.012337
 20
130.379744
 30
0.0
  0
SPLINE
  5
10d
100
AcDbEntity
  8
Cut
 62
7
100
AcDbSpline
 70
8
 71
3
 72
8
 73
4
 74
0
 40
0
 40
0
 40
0
 40
0
 40
1
 40
1
 40
1
 40
1
 10
127.012337
 20
130.379744
 30
0.0
 10
126.702751
 20
130.200831
 30
0.0
 10
126.512250
 20
129.870234
 30
0.0
 10
126.512701
 20
129.512669
 30
0.0
  0
SPLINE
  5
10e
100
AcDbEntity
  8
Cut
 62
7
100
AcDbSpline
 70
8
 71
3
 72
8
 73
4
 74
0
 40
0
 40
0
 40
0
 40
0
 40
1
 40
1
 40
1
 40
1
 10
126.512701
 20
129.512669
 30
0.0
 10
126.512250
 20
129.155103
 30
0.0
 10
126.702751
 20
128.824506
 30
0.0
 10
127.012337
 20
128.645593
 30
0.0
  0
SPLINE
  5
10f
100
AcDbEntity
  8
Cut
 62
7
100
AcDbSpline
 70
8
 71
3
 72
8
 73
4
 74
0
 40
0
 40
0
 40
0
 40
0
 40
1
 40
1
 40
1
 40
1
 10
127.012337
 20
128.645593
 30
0.0
 10
127.321922
 20
128.466680
 30
0.0
 10
127.703478
 20
128.466680
 30
0.0
 10
128.013064
 20
128.645593
 30
0.0
  0
SPLINE
  5
110
100
AcDbEntity
  8
Cut
 62
7
100
AcDbSpline
 70
8
 71
3
 72
8
 73
4
 74
0
 40
0
 40
0
 40
0
 40
0
 40
1
 40
1
 40
1
 40
1
 10
128.013064
 20
128.645593
 30
0.0
 10
128.322650
 20
128.824506
 30
0.0
 10
128.513150
 20
129.155103
 30
0.0
 10
128.512700
 20
129.512669
 30
0.0
  0
LWPOLYLINE
  5
111
100
AcDbEntity
  8
Cut
 62
7
100
AcDbPolyline
 90
2
 70
0
 10
0.012700
 20
10.012680
 30
0.0
 10
0.012700
 20
270.012663
 30
0.0
  0
SPLINE
  5
112
100
AcDbEntity
  8
Cut
 62
7
100
AcDbSpline
 70
8
 71
3
 72
8
 73
4
 74
0
 40
0
 40
0
 40
0
 40
0
 40
1
 40
1
 40
1
 40
1
 10
141.012701
 20
129.512669
 30
0.0
 10
141.012701
 20
129.869934
 30
0.0
 10
140.822102
 20
130.200062
 30
0.0
 10
140.512701
 20
130.378695
 30
0.0
  0
SPLINE
  5
113
100
AcDbEntity
  8
Cut
 62
7
100
AcDbSpline
 70
8
 71
3
 72
8
 73
4
 74
0
 40
0
 40
0
 40
0
 40
0
 40
1
 40
1
 40
1
 40
1
 10
140.512701
 20
130.378695
 30
0.0
 10
140.203300
 20
130.557327
 30
0.0
 10
139.822101
 20
130.557327
 30
0.0
 10
139.512700
 20
130.378695
 30
0.0
  0
SPLINE
  5
114
100
AcDbEntity
  8
Cut
 62
7
100
AcDbSpline
 70
8
 71
3
 72
8
 73
4
 74
0
 40
0
 40
0
 40
0
 40
0
 40
1
 40
1
 40
1
 40
1
 10
139.512700
 20
130.378695
 30
0.0
 10
139.203299
 20
130.200062
 30
0.0
 10
139.012700
 20
129.869934
 30
0.0
 10
139.012700
 20
129.512669
 30
0.0
  0
SPLINE
  5
115
100
AcDbEntity
  8
Cut
 62
7
100
AcDbSpline
 70
8
 71
3
 72
8
 73
4
 74
0
 40
0
 40
0
 40
0
 40
0
 40
1
 40
1
 40
1
 40
1
 10
139.012700
 20
129.512669
 30
0.0
 10
139.012700
 20
129.155403
 30
0.0
 10
139.203299
 20
128.825275
 30
0.0
 10
139.512700
 20
128.646643
 30
0.0
  0
SPLINE
  5
116
100
AcDbEntity
  8
Cut
 62
7
100
AcDbSpline
 70
8
 71
3
 72
8
 73
4
 74
0
 40
0
 40
0
 40
0
 40
0
 40
1
 40
1
 40
1
 40
1
 10
139.512700
 20
128.646643
 30
0.0
 10
139.822101
 20
128.468010
 30
0.0
 10
140.203300
 20
128.468010
 30
0.0
 10
140.512701
 20
128.646643
 30
0.0
  0
SPLINE
  5
117
100
AcDbEntity
  8
Cut
 62
7
100
AcDbSpline
 70
8
 71
3
 72
8
 73
4
 74
0
 40
0
 40
0
 40
0
 40
0
 40
1
 40
1
 40
1
 40
1
 10
140.512701
 20
128.646643
 30
0.0
 10
140.822102
 20
128.825275
 30
0.0
 10
141.012701
 20
129.155403
 30
0.0
 10
141.012701
 20
129.512669
 30
0.0
  0
LWPOLYLINE
  5
118
100
AcDbEntity
  8
Cut
 62
7
100
AcDbPolyline
 90
1
 70
1
 10
128.512700
 20
129.512669
 30
0.0
  0
SPLINE
  5
119
100
AcDbEntity
  8
Cut
 62
7
100
AcDbSpline
 70
8
 71
3
 72
8
 73
4
 74
0
 40
0
 40
0
 40
0
 40
0
 40
1
 40
1
 40
1
 40
1
 10
141.012701
 20
150.512674
 30
0.0
 10
141.012701
 20
150.869940
 30
0.0
 10
140.822102
 20
151.200067
 30
0.0
 10
140.512701
 20
151.378700
 30
0.0
  0
SPLINE
  5
11a
100
AcDbEntity
  8
Cut
 62
7
100
AcDbSpline
 70
8
 71
3
 72
8
 73
4
 74
0
 40
0
 40
0
 40
0
 40
0
 40
1
 40
1
 40
1
 40
1
 10
140.512701
 20
151.378700
 30
0.0
 10
140.203300
 20
151.557333
 30
0.0
 10
139.822101
 20
151.557333
 30
0.0
 10
139.512700
 20
151.378700
 30
0.0
  0
SPLINE
  5
11b
100
AcDbEntity
  8
Cut
 62
7
100
AcDbSpline
 70
8
 71
3
 72
8
 73
4
 74
0
 40
0
 40
0
 40
0
 40
0
 40
1
 40
1
 40
1
 40
1
 10
139.512700
 20
151.378700
 30
0.0
 10
139.203299
 20
151.200067
 30
0.0
 10
139.012700
 20
150.869940
 30
0.0
 10
139.012700
 20
150.512674
 30
0.0
  0
SPLINE
  5
11c
100
AcDbEntity
  8
Cut
 62
7
100
AcDbSpline
 70
8
 71
3
 72
8
 73
4
 74
0
 40
0
 40
0
 40
0
 40
0
 40
1
 40
1
 40
1
 40
1
 10
139.012700
 20
150.512674
 30
0.0
 10
139.012700
 20
150.155408
 30
0.0
 10
139.203299
 20
149.825281
 30
0.0
 10
139.512700
 20
149.646648
 30
0.0
  0
SPLINE
  5
11d
100
AcDbEntity
  8
Cut
 62
7
100
AcDbSpline
 70
8
 71
3
 72
8
 73
4
 74
0
 40
0
 40
0
 40
0
 40
0
 40
1
 40
1
 40
1
 40
1
 10
139.512700
 20
149.646648
 30
0.0
 10
139.822101
 20
149.468015
 30
0.0
 10
140.203300
 20
149.468015
 30
0.0
 10
140.512701
 20
149.646648
 30
0.0
  0
SPLINE
  5
11e
100
AcDbEntity
  8
Cut
 62
7
100
AcDbSpline
 70
8
 71
3
 72
8
 73
4
 74
0
 40
0
 40
0
 40
0
 40
0
 40
1
 40
1
 40
1
 40
1
 10
140.512701
 20
149.646648
 30
0.0
 10
140.822102
 20
149.825281
 30
0.0
 10
141.012701
 20
150.155408
 30
0.0
 10
141.012701
 20
150.512674
 30
0.0
  0
LWPOLYLINE
  5
11f
100
AcDbEntity
  8
Cut
 62
7
100
AcDbPolyline
 90
1
 70
1
 10
141.012701
 20
129.512669
 30
0.0
  0
SPLINE
  5
120
100
AcDbEntity
  8
Cut
 62
7
100
AcDbSpline
 70
8
 71
3
 72
8
 73
4
 74
0
 40
0
 40
0
 40
0
 40
0
 40
1
 40
1
 40
1
 40
1
 10
128.512700
 20
150.512674
 30
0.0
 10
128.513150
 20
150.870240
 30
0.0
 10
128.322650
 20
151.200837
 30
0.0
 10
128.013064
 20
151.379750
 30
0.0
  0
SPLINE
  5
121
100
AcDbEntity
  8
Cut
 62
7
100
AcDbSpline
 70
8
 71
3
 72
8
 73
4
 74
0
 40
0
 40
0
 40
0
 40
0
 40
1
 40
1
 40
1
 40
1
 10
128.013064
 20
151.379750
 30
0.0
 10
127.703478
 20
151.558662
 30
0.0
 10
127.321922
 20
151.558662
 30
0.0
 10
127.012337
 20
151.379750
 30
0.0
  0
SPLINE
  5
122
100
AcDbEntity
  8
Cut
 62
7
100
AcDbSpline
 70
8
 71
3
 72
8
 73
4
 74
0
 40
0
 40
0
 40
0
 40
0
 40
1
 40
1
 40
1
 40
1
 10
127.012337
 20
151.379750
 30
0.0
 10
126.702751
 20
151.200837
 30
0.0
 10
126.512250
 20
150.870240
 30
0.0
 10
126.512701
 20
150.512674
 30
0.0
  0
SPLINE
  5
123
100
AcDbEntity
  8
Cut
 62
7
100
AcDbSpline
 70
8
 71
3
 72
8
 73
4
 74
0
 40
0
 40
0
 40
0
 40
0
 40
1
 40
1
 40
1
 40
1
 10
126.512701
 20
150.512674
 30
0.0
 10
126.512250
 20
150.155109
 30
0.0
 10
126.702751
 20
149.824512
 30
0.0
 10
127.012337
 20
149.645599
 30
0.0
  0
SPLINE
  5
124
100
AcDbEntity
  8
Cut
 62
7
100
AcDbSpline
 70
8
 71
3
 72
8
 73
4
 74
0
 40
0
 40
0
 40
0
 40
0
 40
1
 40
1
 40
1
 40
1
 10
127.012337
 20
149.645599
 30
0.0
 10
127.321922
 20
149.466686
 30
0.0
 10
127.703478
 20
149.466686
 30
0.0
 10
128.013064
 20
149.645599
 30
0.0
  0
SPLINE
  5
125
100
AcDbEntity
  8
Cut
 62
7
100
AcDbSpline
 70
8
 71
3
 72
8
 73
4
 74
0
 40
0
 40
0
 40
0
 40
0
 40
1
 40
1
 40
1
 40
1
 10
128.013064
 20
149.645599
 30
0.0
 10
128.322650
 20
149.824512
 30
0.0
 10
128.513150
 20
150.155109
 30
0.0
 10
128.512700
 20
150.512674
 30
0.0
  0
LWPOLYLINE
  5
126
100
AcDbEntity
  8
Cut
 62
7
100
AcDbPolyline
 90
1
 70
1
 10
141.012701
 20
150.512674
 30
0.0
  0
LWPOLYLINE
  5
127
100
AcDbEntity
  8
Cut
 62
7
100
AcDbPolyline
 90
1
 70
1
 10
128.512700
 20
150.512674
 30
0.0
  0
LWPOLYLINE
  5
128
100
AcDbEntity
  8
EngraveTop
 62
7
100
AcDbPolyline
 90
4
 70
1
 10
153.762702
 20
151.512667
 30
0.0
 10
143.762701
 20
151.512667
 30
0.0
 10
143.762701
 20
128.512676
 30
0.0
 10
153.762702
 20
128.512676
 30
0.0
  0
LWPOLYLINE
  5
129
100
AcDbEntity
  8
EngraveTop
 62
7
100
AcDbPolyline
 90
4
 70
1
 10
232.262706
 20
151.512667
 30
0.0
 10
239.762699
 20
151.512667
 30
0.0
 10
239.762699
 20
128.512676
 30
0.0
 10
232.262706
 20
128.512676
 30
0.0
  0
LWPOLYLINE
  5
12a
100
AcDbEntity
  8
EngraveTop
 62
7
100
AcDbPolyline
 90
4
 70
1
 10
258.762706
 20
151.512667
 30
0.0
 10
251.262700
 20
151.512667
 30
0.0
 10
251.262700
 20
128.512676
 30
0.0
 10
258.762706
 20
128.512676
 30
0.0
  0
LWPOLYLINE
  5
12b
100
AcDbEntity
  8
EngraveTop
 62
7
100
AcDbPolyline
 90
4
 70
1
 10
9.762700
 20
40.262678
 30
0.0
 10
40.262699
 20
40.262678
 30
0.0
 10
40.262699
 20
9.762675
 30
0.0
 10
9.762700
 20
9.762675
 30
0.0
  0
LWPOLYLINE
  5
12c
100
AcDbEntity
  8
EngraveTop
 62
7
100
AcDbPolyline
 90
4
 70
1
 10
40.262699
 20
40.262678
 30
0.0
 10
239.762699
 20
40.262678
 30
0.0
 10
239.762699
 20
28.762669
 30
0.0
 10
40.262699
 20
28.762669
 30
0.0
  0
LWPOLYLINE
  5
12d
100
AcDbEntity
  8
EngraveTop
 62
7
100
AcDbPolyline
 90
4
 70
1
 10
239.762697
 20
40.262678
 30
0.0
 10
270.262691
 20
40.262678
 30
0.0
 10
270.262691
 20
9.762675
 30
0.0
 10
239.762697
 20
9.762675
 30
0.0
  0
LWPOLYLINE
  5
12e
100
AcDbEntity
  8
EngraveTop
 62
7
100
AcDbPolyline
 90
4
 70
1
 10
239.762697
 20
239.762639
 30
0.0
 10
251.262697
 20
239.762639
 30
0.0
 10
251.262697
 20
40.262654
 30
0.0
 10
239.762697
 20
40.262654
 30
0.0
  0
LWPOLYLINE
  5
12f
100
AcDbEntity
  8
EngraveTop
 62
7
100
AcDbPolyline
 90
4
 70
1
 10
239.762697
 20
270.262667
 30
0.0
 10
270.262691
 20
270.262667
 30
0.0
 10
270.262691
 20
239.762665
 30
0.0
 10
239.762697
 20
239.762665
 30
0.0
  0
LWPOLYLINE
  5
130
100
AcDbEntity
  8
EngraveTop
 62
7
100
AcDbPolyline
 90
4
 70
1
 10
40.262699
 20
251.262647
 30
0.0
 10
239.762699
 20
251.262647
 30
0.0
 10
239.762699
 20
239.762639
 30
0.0
 10
40.262699
 20
239.762639
 30
0.0
  0
LWPOLYLINE
  5
131
100
AcDbEntity
  8
EngraveTop
 62
7
100
AcDbPolyline
 90
4
 70
1
 10
9.762700
 20
270.262667
 30
0.0
 10
40.262700
 20
270.262667
 30
0.0
 10
40.262700
 20
239.762665
 30
0.0
 10
9.762700
 20
239.762665
 30
0.0
  0
SPLINE
  5
132
100
AcDbEntity
  8
EngraveBottom
 62
7
100
AcDbSpline
 70
8
 71
3
 72
8
 73
4
 74
0
 40
0
 40
0
 40
0
 40
0
 40
1
 40
1
 40
1
 40
1
 10
130.012699
 20
150.512674
 30
0.0
 10
130.012699
 20
151.405838
 30
0.0
 10
129.536202
 20
152.231156
 30
0.0
 10
128.762699
 20
152.677738
 30
0.0
  0
SPLINE
  5
133
100
AcDbEntity
  8
EngraveBottom
 62
7
100
AcDbSpline
 70
8
 71
3
 72
8
 73
4
 74
0
 40
0
 40
0
 40
0
 40
0
 40
1
 40
1
 40
1
 40
1
 10
128.762699
 20
152.677738
 30
0.0
 10
127.989196
 20
153.124320
 30
0.0
 10
127.036202
 20
153.124320
 30
0.0
 10
126.262699
 20
152.677738
 30
0.0
  0
SPLINE
  5
134
100
AcDbEntity
  8
EngraveBottom
 62
7
100
AcDbSpline
 70
8
 71
3
 72
8
 73
4
 74
0
 40
0
 40
0
 40
0
 40
0
 40
1
 40
1
 40
1
 40
1
 10
126.262699
 20
152.677738
 30
0.0
 10
125.489196
 20
152.231156
 30
0.0
 10
125.012699
 20
151.405838
 30
0.0
 10
125.012699
 20
150.512674
 30
0.0
  0
SPLINE
  5
135
100
AcDbEntity
  8
EngraveBottom
 62
7
100
AcDbSpline
 70
8
 71
3
 72
8
 73
4
 74
0
 40
0
 40
0
 40
0
 40
0
 40
1
 40
1
 40
1
 40
1
 10
125.012699
 20
150.512674
 30
0.0
 10
125.012699
 20
149.619510
 30
0.0
 10
125.489196
 20
148.794192
 30
0.0
 10
126.262699
 20
148.347610
 30
0.0
  0
SPLINE
  5
136
100
AcDbEntity
  8
EngraveBottom
 62
7
100
AcDbSpline
 70
8
 71
3
 72
8
 73
4
 74
0
 40
0
 40
0
 40
0
 40
0
 40
1
 40
1
 40
1
 40
1
 10
126.262699
 20
148.347610
 30
0.0
 10
127.036202
 20
147.901028
 30
0.0
 10
127.989196
 20
147.901028
 30
0.0
 10
128.762699
 20
148.347610
 30
0.0
  0
SPLINE
  5
137
100
AcDbEntity
  8
EngraveBottom
 62
7
100
AcDbSpline
 70
8
 71
3
 72
8
 73
4
 74
0
 40
0
 40
0
 40
0
 40
0
 40
1
 40
1
 40
1
 40
1
 10
128.762699
 20
148.347610
 30
0.0
 10
129.536202
 20
148.794192
 30
0.0
 10
130.012699
 20
149.619510
 30
0.0
 10
130.012699
 20
150.512674
 30
0.0
  0
LWPOLYLINE
  5
138
100
AcDbEntity
  8
EngraveTop
 62
7
100
AcDbPolyline
 90
4
 70
1
 10
28.762701
 20
239.762639
 30
0.0
 10
40.262699
 20
239.762639
 30
0.0
 10
40.262699
 20
40.262654
 30
0.0
 10
28.762701
 20
40.262654
 30
0.0
  0
SPLINE
  5
139
100
AcDbEntity
  8
EngraveBottom
 62
7
100
AcDbSpline
 70
8
 71
3
 72
8
 73
4
 74
0
 40
0
 40
0
 40
0
 40
0
 40
1
 40
1
 40
1
 40
1
 10
142.512701
 20
150.512674
 30
0.0
 10
142.512701
 20
151.405838
 30
0.0
 10
142.036203
 20
152.231156
 30
0.0
 10
141.262701
 20
152.677738
 30
0.0
  0
SPLINE
  5
13a
100
AcDbEntity
  8
EngraveBottom
 62
7
100
AcDbSpline
 70
8
 71
3
 72
8
 73
4
 74
0
 40
0
 40
0
 40
0
 40
0
 40
1
 40
1
 40
1
 40
1
 10
141.262701
 20
152.677738
 30
0.0
 10
140.489198
 20
153.124320
 30
0.0
 10
139.536203
 20
153.124320
 30
0.0
 10
138.762700
 20
152.677738
 30
0.0
  0
SPLINE
  5
13b
100
AcDbEntity
  8
EngraveBottom
 62
7
100
AcDbSpline
 70
8
 71
3
 72
8
 73
4
 74
0
 40
0
 40
0
 40
0
 40
0
 40
1
 40
1
 40
1
 40
1
 10
138.762700
 20
152.677738
 30
0.0
 10
137.989198
 20
152.231156
 30
0.0
 10
137.512700
 20
151.405838
 30
0.0
 10
137.512700
 20
150.512674
 30
0.0
  0
SPLINE
  5
13c
100
AcDbEntity
  8
EngraveBottom
 62
7
100
AcDbSpline
 70
8
 71
3
 72
8
 73
4
 74
0
 40
0
 40
0
 40
0
 40
0
 40
1
 40
1
 40
1
 40
1
 10
137.512700
 20
150.512674
 30
0.0
 10
137.512700
 20
149.619510
 30
0.0
 10
137.989197
 20
148.794192
 30
0.0
 10
138.762700
 20
148.347610
 30
0.0
  0
SPLINE
  5
13d
100
AcDbEntity
  8
EngraveBottom
 62
7
100
AcDbSpline
 70
8
 71
3
 72
8
 73
4
 74
0
 40
0
 40
0
 40
0
 40
0
 40
1
 40
1
 40
1
 40
1
 10
138.762700
 20
148.347610
 30
0.0
 10
139.536203
 20
147.901028
 30
0.0
 10
140.489198
 20
147.901028
 30
0.0
 10
141.262701
 20
148.347610
 30
0.0
  0
SPLINE
  5
13e
100
AcDbEntity
  8
EngraveBottom
 62
7
100
AcDbSpline
 70
8
 71
3
 72
8
 73
4
 74
0
 40
0
 40
0
 40
0
 40
0
 40
1
 40
1
 40
1
 40
1
 10
141.262701
 20
148.347610
 30
0.0
 10
142.036203
 20
148.794192
 30
0.0
 10
142.512701
 20
149.619510
 30
0.0
 10
142.512701
 20
150.512674
 30
0.0
  0
LWPOLYLINE
  5
13f
100
AcDbEntity
  8
EngraveBottom
 62
7
100
AcDbPolyline
 90
1
 70
1
 10
130.012699
 20
150.512674
 30
0.0
  0
SPLINE
  5
140
100
AcDbEntity
  8
EngraveBottom
 62
7
100
AcDbSpline
 70
8
 71
3
 72
8
 73
4
 74
0
 40
0
 40
0
 40
0
 40
0
 40
1
 40
1
 40
1
 40
1
 10
130.012699
 20
129.512669
 30
0.0
 10
130.012699
 20
130.405833
 30
0.0
 10
129.536202
 20
131.231150
 30
0.0
 10
128.762699
 20
131.677732
 30
0.0
  0
SPLINE
  5
141
100
AcDbEntity
  8
EngraveBottom
 62
7
100
AcDbSpline
 70
8
 71
3
 72
8
 73
4
 74
0
 40
0
 40
0
 40
0
 40
0
 40
1
 40
1
 40
1
 40
1
 10
128.762699
 20
131.677732
 30
0.0
 10
127.989196
 20
132.124314
 30
0.0
 10
127.036202
 20
132.124314
 30
0.0
 10
126.262699
 20
131.677732
 30
0.0
  0
SPLINE
  5
142
100
AcDbEntity
  8
EngraveBottom
 62
7
100
AcDbSpline
 70
8
 71
3
 72
8
 73
4
 74
0
 40
0
 40
0
 40
0
 40
0
 40
1
 40
1
 40
1
 40
1
 10
126.262699
 20
131.677732
 30
0.0
 10
125.489196
 20
131.231150
 30
0.0
 10
125.012699
 20
130.405833
 30
0.0
 10
125.012699
 20
129.512669
 30
0.0
  0
SPLINE
  5
143
100
AcDbEntity
  8
EngraveBottom
 62
7
100
AcDbSpline
 70
8
 71
3
 72
8
 73
4
 74
0
 40
0
 40
0
 40
0
 40
0
 40
1
 40
1
 40
1
 40
1
 10
125.012699
 20
129.512669
 30
0.0
 10
125.012699
 20
128.619504
 30
0.0
 10
125.489196
 20
127.794187
 30
0.0
 10
126.262699
 20
127.347605
 30
0.0
  0
SPLINE
  5
144
100
AcDbEntity
  8
EngraveBottom
 62
7
100
AcDbSpline
 70
8
 71
3
 72
8
 73
4
 74
0
 40
0
 40
0
 40
0
 40
0
 40
1
 40
1
 40
1
 40
1
 10
126.262699
 20
127.347605
 30
0.0
 10
127.036202
 20
126.901023
 30
0.0
 10
127.989196
 20
126.901023
 30
0.0
 10
128.762699
 20
127.347605
 30
0.0
  0
SPLINE
  5
145
100
AcDbEntity
  8
EngraveBottom
 62
7
100
AcDbSpline
 70
8
 71
3
 72
8
 73
4
 74
0
 40
0
 40
0
 40
0
 40
0
 40
1
 40
1
 40
1
 40
1
 10
128.762699
 20
127.347605
 30
0.0
 10
129.536202
 20
127.794187
 30
0.0
 10
130.012699
 20
128.619504
 30
0.0
 10
130.012699
 20
129.512669
 30
0.0
  0
LWPOLYLINE
  5
146
100
AcDbEntity
  8
EngraveBottom
 62
7
100
AcDbPolyline
 90
1
 70
1
 10
142.512701
 20
150.512674
 30
0.0
  0
SPLINE
  5
147
100
AcDbEntity
  8
EngraveBottom
 62
7
100
AcDbSpline
 70
8
 71
3
 72
8
 73
4
 74
0
 40
0
 40
0
 40
0
 40
0
 40
1
 40
1
 40
1
 40
1
 10
142.512701
 20
129.512669
 30
0.0
 10
142.512701
 20
130.405833
 30
0.0
 10
142.036203
 20
131.231150
 30
0.0
 10
141.262701
 20
131.677732
 30
0.0
  0
SPLINE
  5
148
100
AcDbEntity
  8
EngraveBottom
 62
7
100
AcDbSpline
 70
8
 71
3
 72
8
 73
4
 74
0
 40
0
 40
0
 40
0
 40
0
 40
1
 40
1
 40
1
 40
1
 10
141.262701
 20
131.677732
 30
0.0
 10
140.489198
 20
132.124314
 30
0.0
 10
139.536203
 20
132.124314
 30
0.0
 10
138.762700
 20
131.677732
 30
0.0
  0
SPLINE
  5
149
100
AcDbEntity
  8
EngraveBottom
 62
7
100
AcDbSpline
 70
8
 71
3
 72
8
 73
4
 74
0
 40
0
 40
0
 40
0
 40
0
 40
1
 40
1
 40
1
 40
1
 10
138.762700
 20
131.677732
 30
0.0
 10
137.989198
 20
131.231150
 30
0.0
 10
137.512700
 20
130.405833
 30
0.0
 10
137.512700
 20
129.512669
 30
0.0
  0
SPLINE
  5
14a
100
AcDbEntity
  8
EngraveBottom
 62
7
100
AcDbSpline
 70
8
 71
3
 72
8
 73
4
 74
0
 40
0
 40
0
 40
0
 40
0
 40
1
 40
1
 40
1
 40
1
 10
137.512700
 20
129.512669
 30
0.0
 10
137.512700
 20
128.619504
 30
0.0
 10
137.989197
 20
127.794187
 30
0.0
 10
138.762700
 20
127.347605
 30
0.0
  0
SPLINE
  5
14b
100
AcDbEntity
  8
EngraveBottom
 62
7
100
AcDbSpline
 70
8
 71
3
 72
8
 73
4
 74
0
 40
0
 40
0
 40
0
 40
0
 40
1
 40
1
 40
1
 40
1
 10
138.762700
 20
127.347605
 30
0.0
 10
139.536203
 20
126.901023
 30
0.0
 10
140.489198
 20
126.901023
 30
0.0
 10
141.262701
 20
127.347605
 30
0.0
  0
SPLINE
  5
14c
100
AcDbEntity
  8
EngraveBottom
 62
7
100
AcDbSpline
 70
8
 71
3
 72
8
 73
4
 74
0
 40
0
 40
0
 40
0
 40
0
 40
1
 40
1
 40
1
 40
1
 10
141.262701
 20
127.347605
 30
0.0
 10
142.036203
 20
127.794187
 30
0.0
 10
142.512701
 20
128.619504
 30
0.0
 10
142.512701
 20
129.512669
 30
0.0
  0
LWPOLYLINE
  5
14d
100
AcDbEntity
  8
EngraveBottom
 62
7
100
AcDbPolyline
 90
1
 70
1
 10
130.012699
 20
129.512669
 30
0.0
  0
LWPOLYLINE
  5
14e
100
AcDbEntity
  8
EngraveBottom
 62
7
100
AcDbPolyline
 90
1
 70
1
 10
142.512701
 20
129.512669
 30
0.0
  0
ENDSEC
  0
SECTION
  2
OBJECTS
  0
DICTIONARY
  5
C
330
0
100
AcDbDictionary
  3
ACAD_GROUP
350
D
  3
ACAD_MLINESTYLE
350
17
  0
DICTIONARY
  5
D
330
C
100
AcDbDictionary
  0
DICTIONARY
  5
1A
330
C
100
AcDbDictionary
  0
DICTIONARY
  5
17
330
C
100
AcDbDictionary
  3
STANDARD
350
18
  0
DICTIONARY
  5
19
330
C
100
AcDbDictionary
  0
ENDSEC
  0
EOF
