<?xml version="1.0" encoding="UTF-8" standalone="no"?>
<!-- Created with Inkscape (http://www.inkscape.org/) -->

<svg
   xmlns:dc="http://purl.org/dc/elements/1.1/"
   xmlns:cc="http://creativecommons.org/ns#"
   xmlns:rdf="http://www.w3.org/1999/02/22-rdf-syntax-ns#"
   xmlns:svg="http://www.w3.org/2000/svg"
   xmlns="http://www.w3.org/2000/svg"
   xmlns:sodipodi="http://sodipodi.sourceforge.net/DTD/sodipodi-0.dtd"
   xmlns:inkscape="http://www.inkscape.org/namespaces/inkscape"
   version="1.1"
   id="svg2"
   xml:space="preserve"
   width="943.88666"
   height="943.888"
   viewBox="0 0 943.88666 943.888"
   sodipodi:docname="middlePanel.svg"
   inkscape:version="0.92.3 (2405546, 2018-03-11)"><metadata
     id="metadata8"><rdf:RDF><cc:Work
         rdf:about=""><dc:format>image/svg+xml</dc:format><dc:type
           rdf:resource="http://purl.org/dc/dcmitype/StillImage" /><dc:title></dc:title></cc:Work></rdf:RDF></metadata><defs
     id="defs6"><clipPath
       clipPathUnits="userSpaceOnUse"
       id="clipPath18"><path
         d="M 0,707.916 H 707.915 V 0 H 0 Z"
         id="path16"
         inkscape:connector-curvature="0" /></clipPath></defs><sodipodi:namedview
     pagecolor="#ffffff"
     bordercolor="#666666"
     borderopacity="1"
     objecttolerance="10"
     gridtolerance="10"
     guidetolerance="10"
     inkscape:pageopacity="0"
     inkscape:pageshadow="2"
     inkscape:window-width="1366"
     inkscape:window-height="705"
     id="namedview4"
     showgrid="false"
     inkscape:zoom="0.50005933"
     inkscape:cx="364.18349"
     inkscape:cy="481.50116"
     inkscape:window-x="-8"
     inkscape:window-y="-8"
     inkscape:window-maximized="1"
     inkscape:current-layer="layer1" /><g
     id="g10"
     inkscape:groupmode="layer"
     inkscape:label="Cut"
     transform="matrix(1.3333333,0,0,-1.3333333,0,943.888)"
     style="display:inline"><g
       clip-path="url(#clipPath18)"
       id="g14"><g
         transform="translate(42.5063,679.5659)"
         id="g20"><path
           inkscape:connector-curvature="0"
           id="path22"
           style="fill:none;stroke:#000000;stroke-width:0.072;stroke-linecap:round;stroke-linejoin:round;stroke-miterlimit:4;stroke-dasharray:none;stroke-opacity:1"
           d="m 0,0 c 0,7.818 -6.338,14.157 -14.157,14.157 -7.818,0 -14.156,-6.339 -14.156,-14.157 0,-7.819 6.338,-14.157 14.156,-14.157 C -6.338,-14.157 0,-7.819 0,0 Z" /></g><g
         transform="translate(42.5063,28.3506)"
         id="g24"><path
           inkscape:connector-curvature="0"
           id="path26"
           style="fill:none;stroke:#000000;stroke-width:0.072;stroke-linecap:round;stroke-linejoin:round;stroke-miterlimit:4;stroke-dasharray:none;stroke-opacity:1"
           d="m 0,0 c 0,7.818 -6.338,14.156 -14.157,14.156 -7.818,0 -14.156,-6.338 -14.156,-14.156 0,-7.819 6.338,-14.157 14.156,-14.157 C -6.338,-14.157 0,-7.819 0,0 Z" /></g><g
         transform="translate(693.7227,28.3506)"
         id="g28"><path
           inkscape:connector-curvature="0"
           id="path30"
           style="fill:none;stroke:#000000;stroke-width:0.072;stroke-linecap:round;stroke-linejoin:round;stroke-miterlimit:4;stroke-dasharray:none;stroke-opacity:1"
           d="m 0,0 c 0,7.818 -6.339,14.156 -14.157,14.156 -7.819,0 -14.157,-6.338 -14.157,-14.156 0,-7.819 6.338,-14.157 14.157,-14.157 C -6.339,-14.157 0,-7.819 0,0 Z" /></g><g
         transform="translate(693.7227,679.5659)"
         id="g32"><path
           inkscape:connector-curvature="0"
           id="path34"
           style="fill:none;stroke:#000000;stroke-width:0.072;stroke-linecap:round;stroke-linejoin:round;stroke-miterlimit:4;stroke-dasharray:none;stroke-opacity:1"
           d="m 0,0 c 0,7.818 -6.339,14.157 -14.157,14.157 -7.819,0 -14.157,-6.339 -14.157,-14.157 0,-7.819 6.338,-14.157 14.157,-14.157 C -6.339,-14.157 0,-7.819 0,0 Z" /></g><g
         transform="translate(707.8789,693.7227)"
         id="g36"><path
           inkscape:connector-curvature="0"
           id="path38"
           style="fill:none;stroke:#000000;stroke-width:0.072;stroke-linecap:round;stroke-linejoin:round;stroke-miterlimit:4;stroke-dasharray:none;stroke-opacity:1"
           d="M 0,0 V -679.529" /></g><g
         transform="translate(707.8789,14.1934)"
         id="g40"><path
           inkscape:connector-curvature="0"
           id="path42"
           style="fill:none;stroke:#000000;stroke-width:0.072;stroke-linecap:round;stroke-linejoin:round;stroke-miterlimit:4;stroke-dasharray:none;stroke-opacity:1"
           d="m 0,0 -0.215,-2.458 -0.639,-2.384 -1.042,-2.236 -1.416,-2.022 -1.745,-1.745 -2.021,-1.416 -2.236,-1.042 -2.384,-0.638 -2.458,-0.216" /></g><g
         transform="translate(693.7227,0.0361)"
         id="g44"><path
           inkscape:connector-curvature="0"
           id="path46"
           style="fill:none;stroke:#000000;stroke-width:0.072;stroke-linecap:round;stroke-linejoin:round;stroke-miterlimit:4;stroke-dasharray:none;stroke-opacity:1"
           d="M 0,0 H -679.53" /></g><g
         transform="translate(14.1929,0.0361)"
         id="g48"><path
           inkscape:connector-curvature="0"
           id="path50"
           style="fill:none;stroke:#000000;stroke-width:0.072;stroke-linecap:round;stroke-linejoin:round;stroke-miterlimit:4;stroke-dasharray:none;stroke-opacity:1"
           d="m 0,0 -2.762,0.272 -2.655,0.806 -2.448,1.308 -2.145,1.76 -1.761,2.146 -1.308,2.447 -0.806,2.657 -0.272,2.761" /></g><g
         transform="translate(0.0361,14.1934)"
         id="g52"><path
           inkscape:connector-curvature="0"
           id="path54"
           style="fill:none;stroke:#000000;stroke-width:0.072;stroke-linecap:round;stroke-linejoin:round;stroke-miterlimit:4;stroke-dasharray:none;stroke-opacity:1"
           d="M 0,0 V 679.529" /></g><g
         transform="translate(0.0361,693.7227)"
         id="g56"><path
           inkscape:connector-curvature="0"
           id="path58"
           style="fill:none;stroke:#000000;stroke-width:0.072;stroke-linecap:round;stroke-linejoin:round;stroke-miterlimit:4;stroke-dasharray:none;stroke-opacity:1"
           d="m 0,0 0.272,2.762 0.806,2.655 1.308,2.448 1.76,2.146 2.146,1.76 2.447,1.308 2.656,0.806 2.762,0.272" /></g><g
         transform="translate(14.1929,707.8794)"
         id="g60"><path
           inkscape:connector-curvature="0"
           id="path62"
           style="fill:none;stroke:#000000;stroke-width:0.072;stroke-linecap:round;stroke-linejoin:round;stroke-miterlimit:4;stroke-dasharray:none;stroke-opacity:1"
           d="M 0,0 H 679.53" /></g><g
         transform="translate(693.7227,707.8794)"
         id="g64"><path
           inkscape:connector-curvature="0"
           id="path66"
           style="fill:none;stroke:#000000;stroke-width:0.072;stroke-linecap:round;stroke-linejoin:round;stroke-miterlimit:4;stroke-dasharray:none;stroke-opacity:1"
           d="m 0,0 2.762,-0.272 2.655,-0.806 2.447,-1.308 2.146,-1.76 1.761,-2.146 1.308,-2.447 0.806,-2.656 0.271,-2.762" /></g></g></g><g
     inkscape:groupmode="layer"
     id="layer1"
     inkscape:label="Engrave"
     style="display:inline"><g
       style="display:inline"
       id="g68"
       transform="matrix(1.3333333,0,0,-1.3333333,85.513065,902.44787)"><path
         d="M 0,0 H 42.52"
         style="fill:none;stroke:#000000;stroke-width:1;stroke-linecap:butt;stroke-linejoin:miter;stroke-miterlimit:4;stroke-dasharray:none;stroke-opacity:1"
         id="path70"
         inkscape:connector-curvature="0" /></g><g
       style="display:inline"
       id="g72"
       transform="matrix(1.3333333,0,0,-1.3333333,142.20573,902.44787)"><path
         d="M 0,0 V 42.52"
         style="fill:none;stroke:#000000;stroke-width:1;stroke-linecap:butt;stroke-linejoin:miter;stroke-miterlimit:4;stroke-dasharray:none;stroke-opacity:1"
         id="path74"
         inkscape:connector-curvature="0" /></g><g
       style="display:inline"
       id="g76"
       transform="matrix(1.3333333,0,0,-1.3333333,85.513065,902.44787)"><path
         d="M 0,0 6.013,6.014"
         style="fill:none;stroke:#000000;stroke-width:1.98399997;stroke-linecap:butt;stroke-linejoin:miter;stroke-miterlimit:4;stroke-dasharray:none;stroke-opacity:1"
         id="path78"
         inkscape:connector-curvature="0" /></g><g
       style="display:inline"
       id="g80"
       transform="matrix(1.3333333,0,0,-1.3333333,85.513065,902.44787)"><path
         d="M 0,0 6.013,-6.014"
         style="fill:none;stroke:#000000;stroke-width:1.98399997;stroke-linecap:butt;stroke-linejoin:miter;stroke-miterlimit:4;stroke-dasharray:none;stroke-opacity:1"
         id="path82"
         inkscape:connector-curvature="0" /></g><g
       style="display:inline"
       id="g84"
       transform="matrix(1.3333333,0,0,-1.3333333,142.20573,845.7552)"><path
         d="M 0,0 6.013,-6.013"
         style="fill:none;stroke:#000000;stroke-width:1.98399997;stroke-linecap:butt;stroke-linejoin:miter;stroke-miterlimit:4;stroke-dasharray:none;stroke-opacity:1"
         id="path86"
         inkscape:connector-curvature="0" /></g><g
       style="display:inline"
       id="g88"
       transform="matrix(1.3333333,0,0,-1.3333333,142.20573,845.7552)"><path
         d="M 0,0 -6.013,-6.014"
         style="fill:none;stroke:#000000;stroke-width:1.98399997;stroke-linecap:butt;stroke-linejoin:miter;stroke-miterlimit:4;stroke-dasharray:none;stroke-opacity:1"
         id="path90"
         inkscape:connector-curvature="0" /></g><text
       transform="matrix(1.3333333,0,0,1.3333333,89.521464,928.6692)"
       style="font-variant:normal;font-weight:normal;font-stretch:normal;font-size:14px;font-family:'Myriad Pro';-inkscape-font-specification:MyriadPro-Regular;writing-mode:lr-tb;display:inline;fill:#000000;fill-opacity:1;fill-rule:nonzero;stroke:none"
       id="text96"><tspan
         x="0"
         y="0"
         id="tspan92">x</tspan><tspan
         x="51.464001"
         y="-54.166"
         id="tspan94">y</tspan></text>
</g></svg>