  0
SECTION
  2
HEADER
  9
$ACADVER
  1
AC1014
  9
$HANDSEED
  5
FFFF
  9
$MEASUREMENT
 70
     1
  0
ENDSEC
  0
SECTION
  2
TABLES
  0
TABLE
  2
VPORT
  5
8
330
0
100
AcDbSymbolTable
 70
     4
  0
VPORT
  5
2E
330
8
100
AcDbSymbolTableRecord
100
AcDbViewportTableRecord
  2
*ACTIVE
 70
     0
 10
0.0
 20
0.0
 11
1.0
 21
1.0
 12
210.0
 22
148.5
 13
0.0
 23
0.0
 14
10.0
 24
10.0
 15
10.0
 25
10.0
 16
0.0
 26
0.0
 36
1.0
 17
0.0
 27
0.0
 37
0.0
 40
341.0
 41
1.24
 42
50.0
 43
0.0
 44
0.0
 50
0.0
 51
0.0
 71
     0
 72
   100
 73
     1
 74
     3
 75
     0
 76
     0
 77
     0
 78
     0
  0
ENDTAB
  0
TABLE
  2
LTYPE
  5
5
330
0
100
AcDbSymbolTable
 70
     1
  0
LTYPE
  5
14
330
5
100
AcDbSymbolTableRecord
100
AcDbLinetypeTableRecord
  2
BYBLOCK
 70
     0
  3

 72
    65
 73
     0
 40
0.0
  0
LTYPE
  5
15
330
5
100
AcDbSymbolTableRecord
100
AcDbLinetypeTableRecord
  2
BYLAYER
 70
     0
  3

 72
    65
 73
     0
 40
0.0
  0
LTYPE
  5
16
330
5
100
AcDbSymbolTableRecord
100
AcDbLinetypeTableRecord
  2
CONTINUOUS
 70
     0
  3
Solid line
 72
    65
 73
     0
 40
0.0
  0
ENDTAB
  0
TABLE
  2
LAYER
  5
2
100
AcDbSymbolTable
 70
1
  0
LAYER
  5
50
100
AcDbSymbolTableRecord
100
AcDbLayerTableRecord
  2
0
 70
0
  6
CONTINUOUS
  0
ENDTAB
  0
TABLE
  2
STYLE
  5
3
330
0
100
AcDbSymbolTable
 70
     1
  0
STYLE
  5
11
330
3
100
AcDbSymbolTableRecord
100
AcDbTextStyleTableRecord
  2
STANDARD
 70
     0
 40
0.0
 41
1.0
 50
0.0
 71
     0
 42
2.5
  3
txt
  4

  0
ENDTAB
  0
TABLE
  2
VIEW
  5
6
330
0
100
AcDbSymbolTable
 70
     0
  0
ENDTAB
  0
TABLE
  2
UCS
  5
7
330
0
100
AcDbSymbolTable
 70
     0
  0
ENDTAB
  0
TABLE
  2
APPID
  5
9
330
0
100
AcDbSymbolTable
 70
     2
  0
APPID
  5
12
330
9
100
AcDbSymbolTableRecord
100
AcDbRegAppTableRecord
  2
ACAD
 70
     0
  0
ENDTAB
  0
TABLE
  2
DIMSTYLE
  5
A
330
0
100
AcDbSymbolTable
 70
     1
  0
DIMSTYLE
105
27
330
A
100
AcDbSymbolTableRecord
100
AcDbDimStyleTableRecord
  2
ISO-25
 70
     0
  3

  4

  5

  6

  7

 40
1.0
 41
2.5
 42
0.625
 43
3.75
 44
1.25
 45
0.0
 46
0.0
 47
0.0
 48
0.0
140
2.5
141
2.5
142
0.0
143
0.03937007874016
144
1.0
145
0.0
146
1.0
147
0.625
 71
     0
 72
     0
 73
     0
 74
     0
 75
     0
 76
     0
 77
     1
 78
     8
170
     0
171
     3
172
     1
173
     0
174
     0
175
     0
176
     0
177
     0
178
     0
270
     2
271
     2
272
     2
273
     2
274
     3
340
11
275
     0
280
     0
281
     0
282
     0
283
     0
284
     8
285
     0
286
     0
287
     3
288
     0
  0
ENDTAB
  0
TABLE
  2
BLOCK_RECORD
  5
1
330
0
100
AcDbSymbolTable
 70
     1
  0
BLOCK_RECORD
  5
1F
330
1
100
AcDbSymbolTableRecord
100
AcDbBlockTableRecord
  2
*MODEL_SPACE
  0
BLOCK_RECORD
  5
1B
330
1
100
AcDbSymbolTableRecord
100
AcDbBlockTableRecord
  2
*PAPER_SPACE
  0
ENDTAB
  0
ENDSEC
  0
SECTION
  2
BLOCKS
  0
BLOCK
  5
20
330
1F
100
AcDbEntity
  8
0
100
AcDbBlockBegin
  2
*MODEL_SPACE
 70
     0
 10
0.0
 20
0.0
 30
0.0
  3
*MODEL_SPACE
  1

  0
ENDBLK
  5
21
330
1F
100
AcDbEntity
  8
0
100
AcDbBlockEnd
  0
BLOCK
  5
1C
330
1B
100
AcDbEntity
 67
     1
  8
0
100
AcDbBlockBegin
  2
*PAPER_SPACE
  1

  0
ENDBLK
  5
1D
330
1B
100
AcDbEntity
 67
     1
  8
0
100
AcDbBlockEnd
  0
ENDSEC
  0
SECTION
  2
ENTITIES
  0
LWPOLYLINE
  5
100
100
AcDbEntity
  8
0
 62
7
100
AcDbPolyline
 90
8
 70
1
 10
79.937703
 20
165.937708
 30
0.0
 10
79.937703
 20
170.087705
 30
0.0
 10
84.087700
 20
170.087705
 30
0.0
 10
86.087701
 20
170.087705
 30
0.0
 10
86.087701
 20
165.937708
 30
0.0
 10
84.087700
 20
165.937708
 30
0.0
 10
84.087700
 20
163.937707
 30
0.0
 10
79.937703
 20
163.937707
 30
0.0
  0
LWPOLYLINE
  5
101
100
AcDbEntity
  8
0
 62
7
100
AcDbPolyline
 90
4
 70
1
 10
91.937702
 20
170.087705
 30
0.0
 10
98.087701
 20
170.087705
 30
0.0
 10
98.087701
 20
165.937708
 30
0.0
 10
91.937702
 20
165.937708
 30
0.0
  0
LWPOLYLINE
  5
102
100
AcDbEntity
  8
0
 62
7
100
AcDbPolyline
 90
4
 70
1
 10
103.937702
 20
170.087705
 30
0.0
 10
110.087701
 20
170.087705
 30
0.0
 10
110.087701
 20
165.937708
 30
0.0
 10
103.937702
 20
165.937708
 30
0.0
  0
LWPOLYLINE
  5
103
100
AcDbEntity
  8
0
 62
7
100
AcDbPolyline
 90
4
 70
1
 10
115.937702
 20
170.087705
 30
0.0
 10
122.087701
 20
170.087705
 30
0.0
 10
122.087701
 20
165.937708
 30
0.0
 10
115.937702
 20
165.937708
 30
0.0
  0
LWPOLYLINE
  5
104
100
AcDbEntity
  8
0
 62
7
100
AcDbPolyline
 90
4
 70
1
 10
127.937702
 20
170.087705
 30
0.0
 10
134.087701
 20
170.087705
 30
0.0
 10
134.087701
 20
165.937708
 30
0.0
 10
127.937702
 20
165.937708
 30
0.0
  0
LWPOLYLINE
  5
105
100
AcDbEntity
  8
0
 62
7
100
AcDbPolyline
 90
4
 70
1
 10
139.937702
 20
170.087705
 30
0.0
 10
146.087700
 20
170.087705
 30
0.0
 10
146.087700
 20
165.937708
 30
0.0
 10
139.937702
 20
165.937708
 30
0.0
  0
LWPOLYLINE
  5
106
100
AcDbEntity
  8
0
 62
7
100
AcDbPolyline
 90
4
 70
1
 10
151.937701
 20
170.087705
 30
0.0
 10
158.087700
 20
170.087705
 30
0.0
 10
158.087700
 20
165.937708
 30
0.0
 10
151.937701
 20
165.937708
 30
0.0
  0
LWPOLYLINE
  5
107
100
AcDbEntity
  8
0
 62
7
100
AcDbPolyline
 90
7
 70
1
 10
163.937701
 20
170.087705
 30
0.0
 10
170.087700
 20
170.087705
 30
0.0
 10
170.087700
 20
165.937708
 30
0.0
 10
170.087700
 20
163.937707
 30
0.0
 10
165.937700
 20
163.937707
 30
0.0
 10
165.937700
 20
165.937708
 30
0.0
 10
163.937701
 20
165.937708
 30
0.0
  0
LWPOLYLINE
  5
108
100
AcDbEntity
  8
0
 62
7
100
AcDbPolyline
 90
4
 70
1
 10
84.087700
 20
158.087706
 30
0.0
 10
84.087700
 20
151.937707
 30
0.0
 10
79.937703
 20
151.937707
 30
0.0
 10
79.937703
 20
158.087706
 30
0.0
  0
LWPOLYLINE
  5
109
100
AcDbEntity
  8
0
 62
7
100
AcDbPolyline
 90
4
 70
1
 10
84.087700
 20
146.087706
 30
0.0
 10
84.087700
 20
139.937707
 30
0.0
 10
79.937703
 20
139.937707
 30
0.0
 10
79.937703
 20
146.087706
 30
0.0
  0
LWPOLYLINE
  5
10a
100
AcDbEntity
  8
0
 62
7
100
AcDbPolyline
 90
4
 70
1
 10
84.087700
 20
134.087706
 30
0.0
 10
84.087700
 20
127.937707
 30
0.0
 10
79.937703
 20
127.937707
 30
0.0
 10
79.937703
 20
134.087706
 30
0.0
  0
LWPOLYLINE
  5
10b
100
AcDbEntity
  8
0
 62
7
100
AcDbPolyline
 90
4
 70
1
 10
84.087700
 20
122.087706
 30
0.0
 10
84.087700
 20
115.937707
 30
0.0
 10
79.937703
 20
115.937707
 30
0.0
 10
79.937703
 20
122.087706
 30
0.0
  0
LWPOLYLINE
  5
10c
100
AcDbEntity
  8
0
 62
7
100
AcDbPolyline
 90
4
 70
1
 10
84.087700
 20
110.087706
 30
0.0
 10
84.087700
 20
103.937708
 30
0.0
 10
79.937703
 20
103.937708
 30
0.0
 10
79.937703
 20
110.087706
 30
0.0
  0
LWPOLYLINE
  5
10d
100
AcDbEntity
  8
0
 62
7
100
AcDbPolyline
 90
4
 70
1
 10
84.087700
 20
98.087707
 30
0.0
 10
84.087700
 20
91.937708
 30
0.0
 10
79.937703
 20
91.937708
 30
0.0
 10
79.937703
 20
98.087707
 30
0.0
  0
LWPOLYLINE
  5
10e
100
AcDbEntity
  8
0
 62
7
100
AcDbPolyline
 90
7
 70
1
 10
84.087700
 20
79.937708
 30
0.0
 10
79.937703
 20
79.937708
 30
0.0
 10
79.937703
 20
86.087707
 30
0.0
 10
84.087700
 20
86.087707
 30
0.0
 10
84.087700
 20
84.087705
 30
0.0
 10
86.087701
 20
84.087705
 30
0.0
 10
86.087701
 20
79.937708
 30
0.0
  0
LWPOLYLINE
  5
10f
100
AcDbEntity
  8
0
 62
7
100
AcDbPolyline
 90
4
 70
1
 10
98.087701
 20
84.087705
 30
0.0
 10
98.087701
 20
79.937708
 30
0.0
 10
91.937702
 20
79.937708
 30
0.0
 10
91.937702
 20
84.087705
 30
0.0
  0
LWPOLYLINE
  5
110
100
AcDbEntity
  8
0
 62
7
100
AcDbPolyline
 90
4
 70
1
 10
110.087701
 20
84.087705
 30
0.0
 10
110.087701
 20
79.937708
 30
0.0
 10
103.937702
 20
79.937708
 30
0.0
 10
103.937702
 20
84.087705
 30
0.0
  0
LWPOLYLINE
  5
111
100
AcDbEntity
  8
0
 62
7
100
AcDbPolyline
 90
4
 70
1
 10
122.087701
 20
84.087705
 30
0.0
 10
122.087701
 20
79.937708
 30
0.0
 10
115.937702
 20
79.937708
 30
0.0
 10
115.937702
 20
84.087705
 30
0.0
  0
LWPOLYLINE
  5
112
100
AcDbEntity
  8
0
 62
7
100
AcDbPolyline
 90
4
 70
1
 10
134.087701
 20
84.087705
 30
0.0
 10
134.087701
 20
79.937708
 30
0.0
 10
127.937702
 20
79.937708
 30
0.0
 10
127.937702
 20
84.087705
 30
0.0
  0
LWPOLYLINE
  5
113
100
AcDbEntity
  8
0
 62
7
100
AcDbPolyline
 90
4
 70
1
 10
146.087700
 20
84.087705
 30
0.0
 10
146.087700
 20
79.937708
 30
0.0
 10
139.937702
 20
79.937708
 30
0.0
 10
139.937702
 20
84.087705
 30
0.0
  0
LWPOLYLINE
  5
114
100
AcDbEntity
  8
0
 62
7
100
AcDbPolyline
 90
4
 70
1
 10
158.087700
 20
84.087705
 30
0.0
 10
158.087700
 20
79.937708
 30
0.0
 10
151.937701
 20
79.937708
 30
0.0
 10
151.937701
 20
84.087705
 30
0.0
  0
LWPOLYLINE
  5
115
100
AcDbEntity
  8
0
 62
7
100
AcDbPolyline
 90
7
 70
1
 10
170.087700
 20
84.087705
 30
0.0
 10
170.087700
 20
79.937708
 30
0.0
 10
163.937701
 20
79.937708
 30
0.0
 10
163.937701
 20
84.087705
 30
0.0
 10
165.937700
 20
84.087705
 30
0.0
 10
165.937700
 20
86.087707
 30
0.0
 10
170.087700
 20
86.087707
 30
0.0
  0
LWPOLYLINE
  5
116
100
AcDbEntity
  8
0
 62
7
100
AcDbPolyline
 90
4
 70
1
 10
165.937700
 20
98.087707
 30
0.0
 10
170.087700
 20
98.087707
 30
0.0
 10
170.087700
 20
91.937708
 30
0.0
 10
165.937700
 20
91.937708
 30
0.0
  0
LWPOLYLINE
  5
117
100
AcDbEntity
  8
0
 62
7
100
AcDbPolyline
 90
4
 70
1
 10
165.937700
 20
110.087706
 30
0.0
 10
170.087700
 20
110.087706
 30
0.0
 10
170.087700
 20
103.937708
 30
0.0
 10
165.937700
 20
103.937708
 30
0.0
  0
LWPOLYLINE
  5
118
100
AcDbEntity
  8
0
 62
7
100
AcDbPolyline
 90
4
 70
1
 10
165.937700
 20
122.087706
 30
0.0
 10
170.087700
 20
122.087706
 30
0.0
 10
170.087700
 20
115.937707
 30
0.0
 10
165.937700
 20
115.937707
 30
0.0
  0
LWPOLYLINE
  5
119
100
AcDbEntity
  8
0
 62
7
100
AcDbPolyline
 90
4
 70
1
 10
165.937700
 20
134.087706
 30
0.0
 10
170.087700
 20
134.087706
 30
0.0
 10
170.087700
 20
127.937707
 30
0.0
 10
165.937700
 20
127.937707
 30
0.0
  0
LWPOLYLINE
  5
11a
100
AcDbEntity
  8
0
 62
7
100
AcDbPolyline
 90
4
 70
1
 10
165.937700
 20
146.087706
 30
0.0
 10
170.087700
 20
146.087706
 30
0.0
 10
170.087700
 20
139.937707
 30
0.0
 10
165.937700
 20
139.937707
 30
0.0
  0
LWPOLYLINE
  5
11b
100
AcDbEntity
  8
0
 62
7
100
AcDbPolyline
 90
4
 70
1
 10
165.937700
 20
158.087706
 30
0.0
 10
170.087700
 20
158.087706
 30
0.0
 10
170.087700
 20
151.937707
 30
0.0
 10
165.937700
 20
151.937707
 30
0.0
  0
SPLINE
  5
11c
100
AcDbEntity
  8
0
 62
7
100
AcDbSpline
 70
8
 71
3
 72
8
 73
4
 74
0
 40
0
 40
0
 40
0
 40
0
 40
1
 40
1
 40
1
 40
1
 10
5.012700
 20
0.012700
 30
0.0
 10
3.686615
 20
0.012700
 30
0.0
 10
2.414843
 20
0.539486
 30
0.0
 10
1.477160
 20
1.477172
 30
0.0
  0
SPLINE
  5
11d
100
AcDbEntity
  8
0
 62
7
100
AcDbSpline
 70
8
 71
3
 72
8
 73
4
 74
0
 40
0
 40
0
 40
0
 40
0
 40
1
 40
1
 40
1
 40
1
 10
1.477160
 20
1.477172
 30
0.0
 10
0.539478
 20
2.414857
 30
0.0
 10
0.012696
 20
3.686631
 30
0.0
 10
0.012700
 20
5.012716
 30
0.0
  0
SPLINE
  5
11e
100
AcDbEntity
  8
0
 62
7
100
AcDbSpline
 70
8
 71
3
 72
8
 73
4
 74
0
 40
0
 40
0
 40
0
 40
0
 40
1
 40
1
 40
1
 40
1
 10
0.012700
 20
5.012716
 30
0.0
 10
0.012700
 20
5.012716
 30
0.0
 10
0.012700
 20
245.012705
 30
0.0
 10
0.012700
 20
245.012705
 30
0.0
  0
SPLINE
  5
11f
100
AcDbEntity
  8
0
 62
7
100
AcDbSpline
 70
8
 71
3
 72
8
 73
4
 74
0
 40
0
 40
0
 40
0
 40
0
 40
1
 40
1
 40
1
 40
1
 10
0.012700
 20
245.012705
 30
0.0
 10
0.012700
 20
246.338787
 30
0.0
 10
0.539484
 20
247.610557
 30
0.0
 10
1.477166
 20
248.548239
 30
0.0
  0
SPLINE
  5
120
100
AcDbEntity
  8
0
 62
7
100
AcDbSpline
 70
8
 71
3
 72
8
 73
4
 74
0
 40
0
 40
0
 40
0
 40
0
 40
1
 40
1
 40
1
 40
1
 10
1.477166
 20
248.548239
 30
0.0
 10
2.414848
 20
249.485921
 30
0.0
 10
3.686617
 20
250.012705
 30
0.0
 10
5.012700
 20
250.012705
 30
0.0
  0
SPLINE
  5
121
100
AcDbEntity
  8
0
 62
7
100
AcDbSpline
 70
8
 71
3
 72
8
 73
4
 74
0
 40
0
 40
0
 40
0
 40
0
 40
1
 40
1
 40
1
 40
1
 10
5.012700
 20
250.012705
 30
0.0
 10
5.012700
 20
250.012705
 30
0.0
 10
245.012699
 20
250.012705
 30
0.0
 10
245.012699
 20
250.012705
 30
0.0
  0
SPLINE
  5
122
100
AcDbEntity
  8
0
 62
7
100
AcDbSpline
 70
8
 71
3
 72
8
 73
4
 74
0
 40
0
 40
0
 40
0
 40
0
 40
1
 40
1
 40
1
 40
1
 10
245.012699
 20
250.012705
 30
0.0
 10
246.338782
 20
250.012705
 30
0.0
 10
247.610552
 20
249.485921
 30
0.0
 10
248.548234
 20
248.548239
 30
0.0
  0
SPLINE
  5
123
100
AcDbEntity
  8
0
 62
7
100
AcDbSpline
 70
8
 71
3
 72
8
 73
4
 74
0
 40
0
 40
0
 40
0
 40
0
 40
1
 40
1
 40
1
 40
1
 10
248.548234
 20
248.548239
 30
0.0
 10
249.485916
 20
247.610557
 30
0.0
 10
250.012700
 20
246.338787
 30
0.0
 10
250.012700
 20
245.012705
 30
0.0
  0
SPLINE
  5
124
100
AcDbEntity
  8
0
 62
7
100
AcDbSpline
 70
8
 71
3
 72
8
 73
4
 74
0
 40
0
 40
0
 40
0
 40
0
 40
1
 40
1
 40
1
 40
1
 10
250.012700
 20
245.012705
 30
0.0
 10
250.012700
 20
245.012705
 30
0.0
 10
250.012700
 20
5.012716
 30
0.0
 10
250.012700
 20
5.012716
 30
0.0
  0
SPLINE
  5
125
100
AcDbEntity
  8
0
 62
7
100
AcDbSpline
 70
8
 71
3
 72
8
 73
4
 74
0
 40
0
 40
0
 40
0
 40
0
 40
1
 40
1
 40
1
 40
1
 10
250.012700
 20
5.012716
 30
0.0
 10
250.012704
 20
3.686631
 30
0.0
 10
249.485922
 20
2.414857
 30
0.0
 10
248.548240
 20
1.477172
 30
0.0
  0
SPLINE
  5
126
100
AcDbEntity
  8
0
 62
7
100
AcDbSpline
 70
8
 71
3
 72
8
 73
4
 74
0
 40
0
 40
0
 40
0
 40
0
 40
1
 40
1
 40
1
 40
1
 10
248.548240
 20
1.477172
 30
0.0
 10
247.610557
 20
0.539486
 30
0.0
 10
246.338785
 20
0.012700
 30
0.0
 10
245.012699
 20
0.012700
 30
0.0
  0
LWPOLYLINE
  5
127
100
AcDbEntity
  8
0
 62
7
100
AcDbPolyline
 90
2
 70
0
 10
245.012699
 20
0.012700
 30
0.0
 10
5.012700
 20
0.012700
 30
0.0
  0
SPLINE
  5
128
100
AcDbEntity
  8
0
 62
7
100
AcDbSpline
 70
8
 71
3
 72
8
 73
4
 74
0
 40
0
 40
0
 40
0
 40
0
 40
1
 40
1
 40
1
 40
1
 10
245.012699
 20
240.012704
 30
0.0
 10
245.013706
 20
241.799703
 30
0.0
 10
244.060932
 20
243.451389
 30
0.0
 10
242.513514
 20
244.345179
 30
0.0
  0
SPLINE
  5
129
100
AcDbEntity
  8
0
 62
7
100
AcDbSpline
 70
8
 71
3
 72
8
 73
4
 74
0
 40
0
 40
0
 40
0
 40
0
 40
1
 40
1
 40
1
 40
1
 10
242.513514
 20
244.345179
 30
0.0
 10
240.966095
 20
245.238969
 30
0.0
 10
239.059306
 20
245.238969
 30
0.0
 10
237.511887
 20
244.345179
 30
0.0
  0
SPLINE
  5
12a
100
AcDbEntity
  8
0
 62
7
100
AcDbSpline
 70
8
 71
3
 72
8
 73
4
 74
0
 40
0
 40
0
 40
0
 40
0
 40
1
 40
1
 40
1
 40
1
 10
237.511887
 20
244.345179
 30
0.0
 10
235.964468
 20
243.451389
 30
0.0
 10
235.011694
 20
241.799703
 30
0.0
 10
235.012701
 20
240.012704
 30
0.0
  0
SPLINE
  5
12b
100
AcDbEntity
  8
0
 62
7
100
AcDbSpline
 70
8
 71
3
 72
8
 73
4
 74
0
 40
0
 40
0
 40
0
 40
0
 40
1
 40
1
 40
1
 40
1
 10
235.012701
 20
240.012704
 30
0.0
 10
235.011694
 20
238.225705
 30
0.0
 10
235.964468
 20
236.574020
 30
0.0
 10
237.511887
 20
235.680229
 30
0.0
  0
SPLINE
  5
12c
100
AcDbEntity
  8
0
 62
7
100
AcDbSpline
 70
8
 71
3
 72
8
 73
4
 74
0
 40
0
 40
0
 40
0
 40
0
 40
1
 40
1
 40
1
 40
1
 10
237.511887
 20
235.680229
 30
0.0
 10
239.059306
 20
234.786439
 30
0.0
 10
240.966095
 20
234.786439
 30
0.0
 10
242.513514
 20
235.680229
 30
0.0
  0
SPLINE
  5
12d
100
AcDbEntity
  8
0
 62
7
100
AcDbSpline
 70
8
 71
3
 72
8
 73
4
 74
0
 40
0
 40
0
 40
0
 40
0
 40
1
 40
1
 40
1
 40
1
 10
242.513514
 20
235.680229
 30
0.0
 10
244.060932
 20
236.574020
 30
0.0
 10
245.013706
 20
238.225705
 30
0.0
 10
245.012699
 20
240.012704
 30
0.0
  0
LWPOLYLINE
  5
12e
100
AcDbEntity
  8
0
 62
7
100
AcDbPolyline
 90
1
 70
1
 10
245.012699
 20
0.012700
 30
0.0
  0
SPLINE
  5
12f
100
AcDbEntity
  8
0
 62
7
100
AcDbSpline
 70
8
 71
3
 72
8
 73
4
 74
0
 40
0
 40
0
 40
0
 40
0
 40
1
 40
1
 40
1
 40
1
 10
245.012699
 20
10.012706
 30
0.0
 10
245.013706
 20
11.799705
 30
0.0
 10
244.060932
 20
13.451391
 30
0.0
 10
242.513514
 20
14.345181
 30
0.0
  0
SPLINE
  5
130
100
AcDbEntity
  8
0
 62
7
100
AcDbSpline
 70
8
 71
3
 72
8
 73
4
 74
0
 40
0
 40
0
 40
0
 40
0
 40
1
 40
1
 40
1
 40
1
 10
242.513514
 20
14.345181
 30
0.0
 10
240.966095
 20
15.238971
 30
0.0
 10
239.059306
 20
15.238971
 30
0.0
 10
237.511887
 20
14.345181
 30
0.0
  0
SPLINE
  5
131
100
AcDbEntity
  8
0
 62
7
100
AcDbSpline
 70
8
 71
3
 72
8
 73
4
 74
0
 40
0
 40
0
 40
0
 40
0
 40
1
 40
1
 40
1
 40
1
 10
237.511887
 20
14.345181
 30
0.0
 10
235.964468
 20
13.451391
 30
0.0
 10
235.011694
 20
11.799705
 30
0.0
 10
235.012701
 20
10.012706
 30
0.0
  0
SPLINE
  5
132
100
AcDbEntity
  8
0
 62
7
100
AcDbSpline
 70
8
 71
3
 72
8
 73
4
 74
0
 40
0
 40
0
 40
0
 40
0
 40
1
 40
1
 40
1
 40
1
 10
235.012701
 20
10.012706
 30
0.0
 10
235.011694
 20
8.225708
 30
0.0
 10
235.964468
 20
6.574022
 30
0.0
 10
237.511887
 20
5.680232
 30
0.0
  0
SPLINE
  5
133
100
AcDbEntity
  8
0
 62
7
100
AcDbSpline
 70
8
 71
3
 72
8
 73
4
 74
0
 40
0
 40
0
 40
0
 40
0
 40
1
 40
1
 40
1
 40
1
 10
237.511887
 20
5.680232
 30
0.0
 10
239.059306
 20
4.786442
 30
0.0
 10
240.966095
 20
4.786442
 30
0.0
 10
242.513514
 20
5.680232
 30
0.0
  0
SPLINE
  5
134
100
AcDbEntity
  8
0
 62
7
100
AcDbSpline
 70
8
 71
3
 72
8
 73
4
 74
0
 40
0
 40
0
 40
0
 40
0
 40
1
 40
1
 40
1
 40
1
 10
242.513514
 20
5.680232
 30
0.0
 10
244.060932
 20
6.574022
 30
0.0
 10
245.013706
 20
8.225708
 30
0.0
 10
245.012699
 20
10.012706
 30
0.0
  0
LWPOLYLINE
  5
135
100
AcDbEntity
  8
0
 62
7
100
AcDbPolyline
 90
1
 70
1
 10
245.012699
 20
240.012704
 30
0.0
  0
SPLINE
  5
136
100
AcDbEntity
  8
0
 62
7
100
AcDbSpline
 70
8
 71
3
 72
8
 73
4
 74
0
 40
0
 40
0
 40
0
 40
0
 40
1
 40
1
 40
1
 40
1
 10
15.012700
 20
10.012706
 30
0.0
 10
15.013111
 20
11.799308
 30
0.0
 10
14.060206
 20
13.450372
 30
0.0
 10
12.513032
 20
14.343792
 30
0.0
  0
SPLINE
  5
137
100
AcDbEntity
  8
0
 62
7
100
AcDbSpline
 70
8
 71
3
 72
8
 73
4
 74
0
 40
0
 40
0
 40
0
 40
0
 40
1
 40
1
 40
1
 40
1
 10
12.513032
 20
14.343792
 30
0.0
 10
10.965858
 20
15.237212
 30
0.0
 10
9.059542
 20
15.237212
 30
0.0
 10
7.512368
 20
14.343792
 30
0.0
  0
SPLINE
  5
138
100
AcDbEntity
  8
0
 62
7
100
AcDbSpline
 70
8
 71
3
 72
8
 73
4
 74
0
 40
0
 40
0
 40
0
 40
0
 40
1
 40
1
 40
1
 40
1
 10
7.512368
 20
14.343792
 30
0.0
 10
5.965194
 20
13.450372
 30
0.0
 10
5.012289
 20
11.799308
 30
0.0
 10
5.012700
 20
10.012706
 30
0.0
  0
SPLINE
  5
139
100
AcDbEntity
  8
0
 62
7
100
AcDbSpline
 70
8
 71
3
 72
8
 73
4
 74
0
 40
0
 40
0
 40
0
 40
0
 40
1
 40
1
 40
1
 40
1
 10
5.012700
 20
10.012706
 30
0.0
 10
5.012289
 20
8.226105
 30
0.0
 10
5.965194
 20
6.575041
 30
0.0
 10
7.512368
 20
5.681621
 30
0.0
  0
SPLINE
  5
13a
100
AcDbEntity
  8
0
 62
7
100
AcDbSpline
 70
8
 71
3
 72
8
 73
4
 74
0
 40
0
 40
0
 40
0
 40
0
 40
1
 40
1
 40
1
 40
1
 10
7.512368
 20
5.681621
 30
0.0
 10
9.059542
 20
4.788201
 30
0.0
 10
10.965858
 20
4.788201
 30
0.0
 10
12.513032
 20
5.681621
 30
0.0
  0
SPLINE
  5
13b
100
AcDbEntity
  8
0
 62
7
100
AcDbSpline
 70
8
 71
3
 72
8
 73
4
 74
0
 40
0
 40
0
 40
0
 40
0
 40
1
 40
1
 40
1
 40
1
 10
12.513032
 20
5.681621
 30
0.0
 10
14.060206
 20
6.575041
 30
0.0
 10
15.013111
 20
8.226105
 30
0.0
 10
15.012700
 20
10.012706
 30
0.0
  0
LWPOLYLINE
  5
13c
100
AcDbEntity
  8
0
 62
7
100
AcDbPolyline
 90
1
 70
1
 10
245.012699
 20
10.012706
 30
0.0
  0
SPLINE
  5
13d
100
AcDbEntity
  8
0
 62
7
100
AcDbSpline
 70
8
 71
3
 72
8
 73
4
 74
0
 40
0
 40
0
 40
0
 40
0
 40
1
 40
1
 40
1
 40
1
 10
15.012700
 20
240.012704
 30
0.0
 10
15.013111
 20
241.799306
 30
0.0
 10
14.060206
 20
243.450370
 30
0.0
 10
12.513032
 20
244.343790
 30
0.0
  0
SPLINE
  5
13e
100
AcDbEntity
  8
0
 62
7
100
AcDbSpline
 70
8
 71
3
 72
8
 73
4
 74
0
 40
0
 40
0
 40
0
 40
0
 40
1
 40
1
 40
1
 40
1
 10
12.513032
 20
244.343790
 30
0.0
 10
10.965858
 20
245.237209
 30
0.0
 10
9.059542
 20
245.237209
 30
0.0
 10
7.512368
 20
244.343790
 30
0.0
  0
SPLINE
  5
13f
100
AcDbEntity
  8
0
 62
7
100
AcDbSpline
 70
8
 71
3
 72
8
 73
4
 74
0
 40
0
 40
0
 40
0
 40
0
 40
1
 40
1
 40
1
 40
1
 10
7.512368
 20
244.343790
 30
0.0
 10
5.965194
 20
243.450370
 30
0.0
 10
5.012289
 20
241.799306
 30
0.0
 10
5.012700
 20
240.012704
 30
0.0
  0
SPLINE
  5
140
100
AcDbEntity
  8
0
 62
7
100
AcDbSpline
 70
8
 71
3
 72
8
 73
4
 74
0
 40
0
 40
0
 40
0
 40
0
 40
1
 40
1
 40
1
 40
1
 10
5.012700
 20
240.012704
 30
0.0
 10
5.012289
 20
238.226102
 30
0.0
 10
5.965194
 20
236.575038
 30
0.0
 10
7.512368
 20
235.681619
 30
0.0
  0
SPLINE
  5
141
100
AcDbEntity
  8
0
 62
7
100
AcDbSpline
 70
8
 71
3
 72
8
 73
4
 74
0
 40
0
 40
0
 40
0
 40
0
 40
1
 40
1
 40
1
 40
1
 10
7.512368
 20
235.681619
 30
0.0
 10
9.059542
 20
234.788199
 30
0.0
 10
10.965858
 20
234.788199
 30
0.0
 10
12.513032
 20
235.681619
 30
0.0
  0
SPLINE
  5
142
100
AcDbEntity
  8
0
 62
7
100
AcDbSpline
 70
8
 71
3
 72
8
 73
4
 74
0
 40
0
 40
0
 40
0
 40
0
 40
1
 40
1
 40
1
 40
1
 10
12.513032
 20
235.681619
 30
0.0
 10
14.060206
 20
236.575038
 30
0.0
 10
15.013111
 20
238.226102
 30
0.0
 10
15.012700
 20
240.012704
 30
0.0
  0
LWPOLYLINE
  5
143
100
AcDbEntity
  8
0
 62
7
100
AcDbPolyline
 90
1
 70
1
 10
15.012700
 20
10.012706
 30
0.0
  0
LWPOLYLINE
  5
144
100
AcDbEntity
  8
0
 62
7
100
AcDbPolyline
 90
1
 70
1
 10
15.012700
 20
240.012704
 30
0.0
  0
ENDSEC
  0
SECTION
  2
OBJECTS
  0
DICTIONARY
  5
C
330
0
100
AcDbDictionary
  3
ACAD_GROUP
350
D
  3
ACAD_MLINESTYLE
350
17
  0
DICTIONARY
  5
D
330
C
100
AcDbDictionary
  0
DICTIONARY
  5
1A
330
C
100
AcDbDictionary
  0
DICTIONARY
  5
17
330
C
100
AcDbDictionary
  3
STANDARD
350
18
  0
DICTIONARY
  5
19
330
C
100
AcDbDictionary
  0
ENDSEC
  0
EOF
