<?xml version="1.0" standalone="no"?>
<!DOCTYPE svg PUBLIC "-//W3C//DTD SVG 20010904//EN"
 "http://www.w3.org/TR/2001/REC-SVG-20010904/DTD/svg10.dtd">
<svg version="1.0" xmlns="http://www.w3.org/2000/svg"
 width="594.000000pt" height="594.000000pt" viewBox="0 0 594.000000 594.000000"
 preserveAspectRatio="xMidYMid meet">
<metadata>
Created by potrace 1.11, written by Peter Selinger 2001-2013
</metadata>
<g transform="translate(0.000000,594.000000) scale(0.100000,-0.100000)"
fill="#000000" stroke="none">
<path d="M1195 5340 c-3 -5 -1 -10 4 -10 6 0 11 5 11 10 0 6 -2 10 -4 10 -3 0
-8 -4 -11 -10z"/>
<path d="M930 4324 c-448 -421 -839 -789 -868 -818 l-54 -53 34 -52 c23 -36
465 -451 1483 -1390 798 -737 1460 -1349 1473 -1361 l24 -22 31 29 c39 37
2868 2663 2881 2674 14 13 -50 103 -122 173 -37 35 -431 406 -877 825 l-810
761 -1190 0 -1190 -1 -815 -765z"/>
</g>
</svg>
